PathFileType	4	(X/Y/Z)	/Users/rkoike/Documents/python/sports2d/worker-zone-detection_Sports2D/worker-zone-detection_Sports2D_px_person00.trc
DataRate	CameraRate	NumFrames	NumMarkers	Units	OrigDataRate	OrigDataStartFrame	OrigNumFrames
60	60	13	22	m	60	1705	4549
Frame#	Time	Hip			RHip			RKnee			RAnkle			RBigToe			RSmallToe			RHeel			LHip			LKnee			LAnkle			LBigToe			LSmallToe			LHeel			Neck			Head			Nose			RShoulder			RElbow			RWrist			LShoulder			LElbow			LWrist			
		X1	Y1	Z1	X2	Y2	Z2	X3	Y3	Z3	X4	Y4	Z4	X5	Y5	Z5	X6	Y6	Z6	X7	Y7	Z7	X8	Y8	Z8	X9	Y9	Z9	X10	Y10	Z10	X11	Y11	Z11	X12	Y12	Z12	X13	Y13	Z13	X14	Y14	Z14	X15	Y15	Z15	X16	Y16	Z16	X17	Y17	Z17	X18	Y18	Z18	X19	Y19	Z19	X20	Y20	Z20	X21	Y21	Z21	X22	Y22	Z22
1705	28.416666666666668	868.9352426118644	741.4780403130873	0.0	901.9671730199801	737.433563357847	0.0	847.9114470987466	835.5594275107035	0.0	821.2231377365879	921.2693314660752	0.0	789.2056846049937	911.6428520971244	0.0	798.7917695676434	910.638872965276	0.0	830.0220605595565	940.3830367268143	0.0	838.939121175678	744.6242942929732	0.0	867.624358084815	890.6332228633731	0.0	921.2375354466254	1027.5532756108253	0.0	868.3293223791728	1034.0660549612703	0.0	870.9433936143323	1045.8790666189045	0.0	944.2635206393907	1050.9037580431484	0.0	876.7244786261713	495.20776973239145	0.0	866.3682605738856	384.60469525329853	0.0	842.793934919957	454.59059095289945	0.0	944.7877715854162	529.3411025430456	0.0	974.6714932417251	648.7295032633652	0.0	982.5359805270309	741.030287796463	0.0	815.695972841769	553.2680262738672	0.0	770.4467909704953	662.9430639149614	0.0	754.4228266405081	680.9624532186618	0.0
1706	28.433333333333334	865.8259958990553	738.3293112758561	0.0	898.4299934698186	735.3616982088083	0.0	845.1757519371695	834.4465067563654	0.0	820.3424237453943	922.8861888406964	0.0	787.2360189461056	912.8628224880777	0.0	796.8185305987397	911.6524079649071	0.0	830.1513200416811	942.4333097305158	0.0	835.8543248002842	741.5412059479768	0.0	862.3770042992822	888.6365982393048	0.0	919.0986150293352	1024.3793937508358	0.0	867.9599735318913	1033.709553276579	0.0	871.2440566428262	1044.7537079016563	0.0	942.5802622767363	1047.6522745225714	0.0	873.9928894625132	492.050688530314	0.0	864.6785211590835	381.8624376694813	0.0	841.1680254840443	451.72367329277785	0.0	941.7656481872732	527.5141938264378	0.0	970.031560944428	646.1848296485903	0.0	977.0658194166041	737.0149796951881	0.0	812.4188346212462	549.6867024374227	0.0	769.4295880733233	659.3426941885165	0.0	752.3251761183784	683.4736974986849	0.0
1707	28.45	862.7359322148911	735.2724658900197	0.0	894.6804167865583	733.3937162954006	0.0	842.9030563931053	833.2258634359131	0.0	819.8233829509664	923.3166723987808	0.0	786.5446476862309	914.3947755518786	0.0	795.9076609639451	913.1986500333231	0.0	830.2736158064553	942.8255299057641	0.0	833.0083336676892	738.6838235190917	0.0	856.6403737420895	886.3382840613341	0.0	916.3612478588464	1020.4816266516051	0.0	868.0001549748314	1033.4744344605397	0.0	871.6425669554887	1043.5805449267968	0.0	940.3678125618285	1043.2590086653106	0.0	871.3543719545687	488.4969567236143	0.0	863.1843090332194	378.71804679662085	0.0	839.69702639186	448.62412205723695	0.0	938.8648364935634	525.4699975439755	0.0	965.3973020707812	643.0672072977738	0.0	971.2514154768667	732.5655611290942	0.0	809.2345303826193	545.615740019772	0.0	768.4665815167654	654.9390647720663	0.0	750.3203998309735	686.614577598401	0.0
1708	28.466666666666665	859.622544314569	732.3333478634696	0.0	890.7051023083343	731.4483012920481	0.0	841.1278647082659	831.6293387170148	0.0	819.457935842698	922.841301977507	0.0	786.7974583500481	916.0094428866288	0.0	795.8231466089932	915.0396621980822	0.0	830.1360703852539	941.8975910261756	0.0	830.2733783334374	735.9745970828986	0.0	850.3487188124686	883.4833929895742	0.0	912.9960474177983	1015.8005338854435	0.0	868.5814838984204	1033.2422131681512	0.0	872.0708687562349	1042.3149423631314	0.0	937.4989290101926	1037.5510390989857	0.0	868.7249356200641	484.71843250520044	0.0	861.8115211887542	375.34243793538775	0.0	838.3522316416684	445.3975450770325	0.0	936.0587005212088	523.1675595456969	0.0	960.8523318699506	639.404784836135	0.0	965.1519459671224	727.9408911683767	0.0	806.0401833686414	541.2099362096894	0.0	767.4611742009916	650.1466928167599	0.0	748.6186279409644	690.1331024597667	0.0
1709	28.483333333333334	856.5021660243625	729.5045736423895	0.0	886.5920035070476	729.5411366979829	0.0	839.9326924737097	829.492068146084	0.0	819.0241003869553	921.8014052741734	0.0	787.3992134404796	917.3994083057688	0.0	796.154328608361	916.9094666322621	0.0	829.4741373621272	940.1802782437095	0.0	827.5030643425965	733.2927692051118	0.0	843.4043237714769	879.8390638006288	0.0	908.9716637433013	1010.2613268131676	0.0	869.6451082295724	1032.7508745087057	0.0	872.4016992940319	1040.7525700330957	0.0	933.8636778904325	1030.4493309012198	0.0	866.0524148201447	480.9039216635579	0.0	860.5489915610019	371.92066655085256	0.0	837.0736227880218	442.12542185496085	0.0	933.3210735045211	520.6170658477441	0.0	956.44082494707	635.334444788673	0.0	958.8151897440067	723.2897187061566	0.0	802.6513064636666	536.695656145087	0.0	766.3472008458566	645.5418300939263	0.0	747.370550638627	693.8874817311955	0.0
1710	28.5	853.3487366837626	726.7540836343967	0.0	882.4442998301629	727.7462991998239	0.0	839.4292371853162	826.938378053202	0.0	818.5118221476807	920.5704938589425	0.0	788.0605424603241	918.4916544143529	0.0	796.8178710218717	918.9130034053705	0.0	828.2457774438739	938.3457746468304	0.0	824.505593177851	730.5934134751817	0.0	835.6945025378488	875.2391258429996	0.0	904.2061136429187	1003.809559532557	0.0	870.8755051856041	1031.7255550675036	0.0	872.4666518593637	1038.5987734976065	0.0	929.3669515369373	1022.0474687263738	0.0	863.3595326094097	477.22021840625774	0.0	859.4158589378725	368.5864832036534	0.0	835.8074238014487	438.82462866500157	0.0	930.6318571372204	517.9032429516766	0.0	952.1340881799956	631.0748470071401	0.0	952.2822410636967	718.6179987428135	0.0	798.9256317709534	532.3278474913972	0.0	765.0962870780696	641.5561233555239	0.0	746.5774418231156	697.683113069667	0.0
1711	28.516666666666666	850.0705268443069	724.0520203511159	0.0	878.3319461639319	726.0776412232902	0.0	839.6320070411533	824.4209831936818	0.0	818.2244147083455	919.6926603428101	0.0	789.0684137578477	919.6850115099571	0.0	798.2468464008766	921.6444080002685	0.0	826.736730354975	937.2214601175682	0.0	821.1219401190959	727.882280185524	0.0	827.1419672003101	869.5945666675927	0.0	898.553027271493	996.3731620569688	0.0	871.770602797484	1029.843790031315	0.0	871.9679507382806	1035.5319034627153	0.0	923.8684248946115	1012.5151112890665	0.0	860.7099247843704	473.7439948384588	0.0	858.4076589745133	365.40739316709227	0.0	834.5568926212004	435.5031765094443	0.0	927.972567558437	515.176822221485	0.0	947.8697434439773	626.9121442656547	0.0	945.5918494684574	713.8951101817773	0.0	794.8430367040837	528.3110679982609	0.0	763.7136779711553	638.3337960729074	0.0	746.1645570438548	701.1938370666505	0.0
1712	28.53333333333333	846.5896960173766	721.3568315734881	0.0	874.3312449502238	724.41782438257	0.0	840.3443109310631	822.4211209910852	0.0	818.6104602443002	919.7965793654448	0.0	791.076451983957	921.7667305355866	0.0	801.1256012904042	925.9249396005858	0.0	825.4171644311999	937.5535244298296	0.0	817.3132267781538	725.1450514798743	0.0	817.7655977944812	862.8938002984781	0.0	891.7840278580152	987.9194089472902	0.0	871.7571620082963	1026.5415378222863	0.0	870.4681398208905	1031.1649026462337	0.0	917.1447680712901	1002.0336891296979	0.0	858.1328193445889	470.48835412767585	0.0	857.4626473847995	362.4247041867021	0.0	833.3711536490513	432.230850482694	0.0	925.3059030965387	512.6043657734248	0.0	943.621521351418	623.1523498120004	0.0	938.8087057353969	709.1661024096231	0.0	790.540185447013	524.754137926543	0.0	762.2125230405819	635.7992309857888	0.0	746.0188510440561	704.128553146037	0.0
1713	28.55	842.9135462595749	718.5509024544554	0.0	870.5375597126356	722.5397757056427	0.0	841.1884315077866	821.0061008474875	0.0	819.9168396999272	921.3110114896506	0.0	794.5760894048475	925.4534910051324	0.0	805.8588226306753	932.3660174159863	0.0	824.6833041540895	939.6259587439044	0.0	813.1543227258422	722.3028509474412	0.0	807.7456712644969	855.2359074310265	0.0	883.6448304925163	978.5866205199912	0.0	870.1684064457012	1020.8805119962415	0.0	867.4703470321384	1024.9248868000493	0.0	908.9493261504774	990.8839476386556	0.0	855.5784590097895	467.48130707004765	0.0	856.4641485098969	359.686804918007	0.0	832.3015276311583	429.10828384476144	0.0	922.567248617911	510.2817389463264	0.0	939.4251766422327	619.9977311344501	0.0	932.0192948801837	704.5684837919902	0.0	786.2606945420193	521.6446970397698	0.0	760.5792263915059	633.7559759013259	0.0	745.9268134065636	706.4000978468744	0.0
1714	28.566666666666666	839.1393772045146	715.4508646190934	0.0	867.0086841783577	720.1836277630362	0.0	841.774381168948	819.7454701868925	0.0	821.9613759915571	924.2418670325587	0.0	799.376139080291	930.9089888283121	0.0	812.132407761861	940.8990001350209	0.0	824.6963041359703	943.0678454529289	0.0	808.7928170722868	719.2185445065157	0.0	797.4753227897938	846.9107221955273	0.0	874.0504731028424	968.7225492092521	0.0	866.2334393434572	1011.8471630260105	0.0	862.4947952537841	1016.1845617939348	0.0	899.1697126855155	979.5284828907642	0.0	852.9473368866596	464.75762677423387	0.0	855.2578726344924	357.2619541622322	0.0	831.3372284962202	426.22518102959094	0.0	919.7039790172425	508.19551030010547	0.0	935.3563323716719	617.4533432154309	0.0	925.2695868068218	700.2754954871733	0.0	782.2205074410476	518.8542408409319	0.0	758.7659990126187	631.9666833149447	0.0	745.5831322704008	708.0773879324063	0.0
1715	28.583333333333332	835.4285540164169	711.9332665923401	0.0	863.7591890551997	717.1665024529091	0.0	841.8741872246316	818.144832562608	0.0	824.2360502766206	928.0956873291808	0.0	804.5006939843831	937.6483275797597	0.0	818.9114023066059	950.4974159150736	0.0	825.358361529314	946.9819632559833	0.0	804.4150120933283	715.7631706114153	0.0	787.4852543509221	838.3529718505187	0.0	863.2628157351903	958.7801761572225	0.0	859.3568586657283	999.1669224510981	0.0	855.2479813330536	1004.812743019488	0.0	888.0108383478798	968.5271747206561	0.0	850.171443198132	462.3101287953827	0.0	853.6886533434456	355.2370670874897	0.0	830.3397351973921	423.67703353721134	0.0	916.7341793846333	506.2763972567893	0.0	931.4824795105218	615.3630281450879	0.0	918.5183779371171	696.394118224413	0.0	778.521913333104	516.2266750987326	0.0	756.7466385898737	630.2373421534687	0.0	744.7527304397069	709.2821195349579	0.0
1716	28.599999999999998	831.9521121700283	708.0484320708563	0.0	860.7976050481456	713.4896219454772	0.0	841.4368712529044	816.0725707386678	0.0	826.1917367050377	931.9216206000814	0.0	808.5672200042886	944.7510421068973	0.0	824.8033603333103	959.351344142547	0.0	826.3836056039879	950.2753173419233	0.0	800.2117709870819	711.9117862792307	0.0	778.2496431650044	829.96883827317	0.0	851.8930295011152	949.1360465653029	0.0	849.5223690249635	984.0084103172886	0.0	845.8545144823468	991.6410366839249	0.0	876.0643245395776	958.3523404099177	0.0	847.2698377617573	460.08597597835484	0.0	851.6784395862105	353.64440903623154	0.0	829.0946549092846	421.54201453528276	0.0	913.7554666553431	504.4602089413231	0.0	927.8087212015671	613.5039709947104	0.0	911.6760195041136	692.8438945329882	0.0	775.1650047251023	513.6888586609103	0.0	754.5767795640247	628.476437743087	0.0	743.4330517607676	710.1273005063346	0.0
1717	28.616666666666667	828.8284464033982	703.9926784639243	0.0	858.1142372019232	709.3518458670702	0.0	840.5137364543278	813.6263464625112	0.0	827.4803217007876	934.5618688660774	0.0	810.3897615631637	951.1551691073602	0.0	828.5873316013387	965.5908877374516	0.0	827.4745204881784	952.0601743404707	0.0	796.3628871781847	707.8148725646938	0.0	770.0680468496865	822.0255425451717	0.0	840.7088365872378	940.0271288580215	0.0	837.4230047959708	968.8590337114291	0.0	834.8743364878516	978.3719971301615	0.0	864.1289460968084	949.3401915868441	0.0	844.3353927487237	458.00551130837573	0.0	849.2880891492067	352.3561012125733	0.0	827.4890848410996	419.77935474472685	0.0	910.8958246409396	502.688373885594	0.0	924.2708252763987	611.6478934865517	0.0	904.7365541945663	689.2960355726759	0.0	772.0921916023898	511.2561127177958	0.0	752.3819306100297	626.7047491723938	0.0	741.827060322503	710.6794556065828	0.0
